<svg width="232" height="179" viewBox="0 0 232 179" fill="none" xmlns="http://www.w3.org/2000/svg">
<path d="M-6.7426e-06 44.3849V14.3533L24.9664 8.42362e-07L50.0432 14.5741V44.7161L25.0769 59.0694L-6.7426e-06 44.3849Z" transform="translate(180.957 41.1953)" fill="white"/>
<path d="M-6.7426e-06 44.3849V14.3533L24.9664 8.42362e-07L50.0432 14.5741V44.7161L25.0769 59.0694L-6.7426e-06 44.3849Z" transform="translate(180.957 41.1953)" stroke="#92A4BA" stroke-width="2" stroke-miterlimit="10"/>
<path d="M0.110477 44.4953L0 14.4637L25.0768 1.68472e-06" transform="translate(205.923 55.7695)" fill="white"/>
<path d="M0.110477 44.4953L0 14.4637L25.0768 1.68472e-06" transform="translate(205.923 55.7695)" stroke="#92A4BA" stroke-width="2" stroke-miterlimit="10"/>
<path d="M24.9664 14.6845L-6.7426e-06 8.42362e-07" transform="translate(180.957 55.5488)" stroke="#92A4BA" stroke-width="2" stroke-miterlimit="10"/>
<path d="M0 14.795L25.9606 5.26476e-08" transform="translate(147.374 3.10352)" stroke="#0074FF" stroke-width="2" stroke-miterlimit="10" stroke-linecap="round" stroke-linejoin="round"/>
<path d="M1.68565e-06 44.3849V14.3533L24.9664 5.26476e-08L50.0432 14.5741V44.7161L25.0768 59.0694L1.68565e-06 44.3849Z" transform="translate(99.7608 2)" fill="white"/>
<path d="M1.68565e-06 44.3849V14.3533L24.9664 5.26476e-08L50.0432 14.5741V44.7161L25.0768 59.0694L1.68565e-06 44.3849Z" transform="translate(99.7608 2)" stroke="#92A4BA" stroke-width="2" stroke-miterlimit="10"/>
<path d="M0.110469 44.4953L0 14.4637L25.0768 -4.21181e-07" transform="translate(124.727 16.5742)" fill="white"/>
<path d="M0.110469 44.4953L0 14.4637L25.0768 -4.21181e-07" transform="translate(124.727 16.5742)" stroke="#92A4BA" stroke-width="2" stroke-miterlimit="10"/>
<path d="M24.9664 14.6845L1.68565e-06 -2.10591e-07" transform="translate(99.7608 16.3535)" stroke="#92A4BA" stroke-width="2" stroke-miterlimit="10"/>
<path d="M0 34.0063L59.6542 -1.68472e-06" transform="translate(51.8165 38.3262)" stroke="#0074FF" stroke-width="2" stroke-miterlimit="10" stroke-linecap="round" stroke-linejoin="round"/>
<path d="M0 18.7697L33.0307 -1.68472e-06" transform="translate(158.973 78.0723)" stroke="#0074FF" stroke-width="2" stroke-miterlimit="10" stroke-linecap="round" stroke-linejoin="round"/>
<path d="M35.3506 -1.68472e-06C-9.94236 27.0505 37.56 75.6309 0 99.9211" transform="translate(76.1201 38.3262)" stroke="#0074FF" stroke-width="2" stroke-miterlimit="10" stroke-linecap="round" stroke-linejoin="round"/>
<path d="M137.536 14.4935C102.185 34.9193 50.8165 -20.8378 0 8.97295" transform="translate(54.0259 63.5801)" stroke="#0074FF" stroke-width="2" stroke-miterlimit="10" stroke-linecap="round" stroke-linejoin="round"/>
<path d="M8.42825e-07 44.4953V14.3533L24.9664 8.42362e-07L49.9328 14.5741V44.7161L25.0768 59.0694L8.42825e-07 44.4953Z" transform="translate(20.5533 47.8203)" fill="white"/>
<path d="M8.42825e-07 44.4953V14.3533L24.9664 8.42362e-07L49.9328 14.5741V44.7161L25.0768 59.0694L8.42825e-07 44.4953Z" transform="translate(20.5533 47.8203)" stroke="#92A4BA" stroke-width="2" stroke-miterlimit="10"/>
<path d="M0.110472 44.4953L-8.42825e-07 14.4637L24.9664 1.68472e-06" transform="translate(45.5197 62.3926)" fill="white"/>
<path d="M0.110472 44.4953L-8.42825e-07 14.4637L24.9664 1.68472e-06" transform="translate(45.5197 62.3926)" stroke="#92A4BA" stroke-width="2" stroke-miterlimit="10"/>
<path d="M24.9664 14.6845L8.42825e-07 8.42362e-07" transform="translate(20.5533 62.1738)" stroke="#92A4BA" stroke-width="2" stroke-miterlimit="10"/>
<path d="M0 18.5489L32.5889 -3.36945e-06" transform="translate(1 84.8066)" stroke="#0074FF" stroke-width="2" stroke-miterlimit="10" stroke-linecap="round" stroke-linejoin="round"/>
<path d="M1.68565e-06 44.3849V14.3533L24.9664 -3.36945e-06L50.0432 14.5741V44.7161L25.0768 59.0694L1.68565e-06 44.3849Z" transform="translate(111.913 80.3906)" fill="white"/>
<path d="M1.68565e-06 44.3849V14.3533L24.9664 -3.36945e-06L50.0432 14.5741V44.7161L25.0768 59.0694L1.68565e-06 44.3849Z" transform="translate(111.913 80.3906)" stroke="#92A4BA" stroke-width="2" stroke-miterlimit="10"/>
<path d="M0.110469 44.4953L0 14.4637L25.0768 1.68472e-06" transform="translate(136.879 94.9648)" fill="white"/>
<path d="M0.110469 44.4953L0 14.4637L25.0768 1.68472e-06" transform="translate(136.879 94.9648)" stroke="#92A4BA" stroke-width="2" stroke-miterlimit="10"/>
<path d="M24.9664 14.6845L1.68565e-06 -3.36945e-06" transform="translate(111.913 94.7441)" stroke="#92A4BA" stroke-width="2" stroke-miterlimit="10"/>
<path d="M0 27.3817L48.0548 -1.68472e-06" transform="translate(76.1201 116.717)" stroke="#0074FF" stroke-width="2" stroke-miterlimit="10" stroke-linecap="round" stroke-linejoin="round"/>
<path d="M8.42825e-07 44.4953V14.3533L24.9664 -3.36945e-06L49.9328 14.5741V44.7161L25.0768 59.0694L8.42825e-07 44.4953Z" transform="translate(48.171 117.93)" fill="white"/>
<path d="M8.42825e-07 44.4953V14.3533L24.9664 -3.36945e-06L49.9328 14.5741V44.7161L25.0768 59.0694L8.42825e-07 44.4953Z" transform="translate(48.171 117.93)" stroke="#92A4BA" stroke-width="2" stroke-miterlimit="10"/>
<path d="M0.110472 44.4953L3.3713e-06 14.4637L24.9664 1.68472e-06" transform="translate(73.1374 132.504)" fill="white"/>
<path d="M0.110472 44.4953L3.3713e-06 14.4637L24.9664 1.68472e-06" transform="translate(73.1374 132.504)" stroke="#92A4BA" stroke-width="2" stroke-miterlimit="10"/>
<path d="M24.9664 14.6845L8.42825e-07 -3.36945e-06" transform="translate(48.171 132.283)" stroke="#92A4BA" stroke-width="2" stroke-miterlimit="10"/>
<path d="M0 18.5489L32.5889 -3.36945e-06" transform="translate(28.6177 154.918)" stroke="#0074FF" stroke-width="2" stroke-miterlimit="10" stroke-linecap="round" stroke-linejoin="round"/>
</svg>
