<svg width="229" height="135" viewBox="0 0 229 135" fill="none" xmlns="http://www.w3.org/2000/svg">
<path d="M2.13943e-06 20.9018L36.735 -8.56205e-06" transform="translate(133.358 1)" stroke="#00C3FF" stroke-width="2" stroke-miterlimit="10" stroke-linecap="round"/>
<path d="M2.13944e-06 37.1743V11.9238L20.7511 0L41.6424 12.2044V37.3146L20.8913 49.3788L2.13944e-06 37.1743Z" transform="translate(96.9037 6.75391)" fill="white"/>
<path d="M2.13944e-06 37.1743V11.9238L20.7511 0L41.6424 12.2044V37.3146L20.8913 49.3788L2.13944e-06 37.1743Z" transform="translate(96.9037 6.75391)" stroke="#92A4BA" stroke-width="2" stroke-miterlimit="10"/>
<path d="M4.27887e-06 37.1744V12.0641L20.7511 1.71241e-05" transform="translate(117.795 18.957)" fill="white"/>
<path d="M4.27887e-06 37.1744V12.0641L20.7511 1.71241e-05" transform="translate(117.795 18.957)" stroke="#92A4BA" stroke-width="2" stroke-miterlimit="10"/>
<path d="M20.8913 12.3447L2.13943e-06 0" transform="translate(96.9037 18.6777)" stroke="#92A4BA" stroke-width="2" stroke-miterlimit="10"/>
<path d="M-2.13943e-06 22.8657L40.1001 8.56205e-06" transform="translate(67.0388 37.0547)" stroke="#00C3FF" stroke-width="2" stroke-miterlimit="10" stroke-linecap="round"/>
<path d="M-1.06972e-06 37.1743V12.0641L20.8913 0L41.6424 12.2044V37.3146L20.8913 49.3788L-1.06972e-06 37.1743Z" transform="translate(31.5658 44.6289)" fill="white"/>
<path d="M-1.06972e-06 37.1743V12.0641L20.8913 0L41.6424 12.2044V37.3146L20.8913 49.3788L-1.06972e-06 37.1743Z" transform="translate(31.5658 44.6289)" stroke="#92A4BA" stroke-width="2" stroke-miterlimit="10"/>
<path d="M1.06972e-06 37.1744V12.0641L20.7511 1.71241e-05" transform="translate(52.4571 56.832)" fill="white"/>
<path d="M1.06972e-06 37.1744V12.0641L20.7511 1.71241e-05" transform="translate(52.4571 56.832)" stroke="#92A4BA" stroke-width="2" stroke-miterlimit="10"/>
<path d="M20.8913 12.2044L-1.06972e-06 8.56205e-06" transform="translate(31.5658 56.6934)" stroke="#92A4BA" stroke-width="2" stroke-miterlimit="10"/>
<path d="M0 23.7074L41.5022 0" transform="translate(1 75.4922)" stroke="#00C3FF" stroke-width="2" stroke-miterlimit="10" stroke-linecap="round"/>
<path d="M-4.27887e-06 20.9018L36.735 0" transform="translate(191.265 34.8105)" stroke="#0074FF" stroke-width="2" stroke-miterlimit="10" stroke-linecap="round" stroke-linejoin="round"/>
<path d="M-4.27887e-06 37.1744V12.0641L20.7511 8.56205e-06L41.6424 12.2044V37.4549L20.8913 49.3787L-4.27887e-06 37.1744Z" transform="translate(154.81 40.5605)" fill="white"/>
<path d="M-4.27887e-06 37.1744V12.0641L20.7511 8.56205e-06L41.6424 12.2044V37.4549L20.8913 49.3787L-4.27887e-06 37.1744Z" transform="translate(154.81 40.5605)" stroke="#92A4BA" stroke-width="2" stroke-miterlimit="10"/>
<path d="M-2.13943e-06 37.1743V12.0641L20.7511 -1.71241e-05" transform="translate(175.702 52.7637)" fill="white"/>
<path d="M-2.13943e-06 37.1743V12.0641L20.7511 -1.71241e-05" transform="translate(175.702 52.7637)" stroke="#92A4BA" stroke-width="2" stroke-miterlimit="10"/>
<path d="M20.8913 12.2044L-4.27887e-06 1.71241e-05" transform="translate(154.81 52.625)" stroke="#92A4BA" stroke-width="2" stroke-miterlimit="10"/>
<path d="M2.13943e-06 22.8657L40.1001 -1.71241e-05" transform="translate(124.946 71)" stroke="#0074FF" stroke-width="2" stroke-miterlimit="10" stroke-linecap="round" stroke-linejoin="round"/>
<path d="M-2.13944e-06 37.1744V12.0641L20.8913 8.56205e-06L41.6424 12.2044V37.4549L20.8913 49.3787L-2.13944e-06 37.1744Z" transform="translate(89.4725 78.4375)" fill="white"/>
<path d="M-2.13944e-06 37.1744V12.0641L20.8913 8.56205e-06L41.6424 12.2044V37.4549L20.8913 49.3787L-2.13944e-06 37.1744Z" transform="translate(89.4725 78.4375)" stroke="#92A4BA" stroke-width="2" stroke-miterlimit="10"/>
<path d="M0 37.1743V12.0641L20.7511 -1.71241e-05" transform="translate(110.364 90.6406)" fill="white"/>
<path d="M0 37.1743V12.0641L20.7511 -1.71241e-05" transform="translate(110.364 90.6406)" stroke="#92A4BA" stroke-width="2" stroke-miterlimit="10"/>
<path d="M20.8913 12.2044L-2.13943e-06 1.71241e-05" transform="translate(89.4725 90.5)" stroke="#92A4BA" stroke-width="2" stroke-miterlimit="10"/>
<path d="M-1.06972e-06 23.5671L41.5022 1.71241e-05" transform="translate(58.9067 109.438)" stroke="#0074FF" stroke-width="2" stroke-miterlimit="10" stroke-linecap="round" stroke-linejoin="round"/>
</svg>
