<svg width="210" height="128" viewBox="0 0 210 128" fill="none" xmlns="http://www.w3.org/2000/svg">
<path d="M2.13943e-06 12.0641L20.3305 -3.42482e-05" transform="translate(131.115 4.94531)" stroke="#0074FF" stroke-width="2" stroke-miterlimit="10" stroke-linecap="round" stroke-linejoin="round"/>
<path d="M2.13944e-06 37.1743V11.9238L20.7511 0L41.6424 12.2044V37.3146L20.8913 49.3788L2.13944e-06 37.1743Z" transform="translate(94.6604 2)" fill="white"/>
<path d="M2.13944e-06 37.1743V11.9238L20.7511 0L41.6424 12.2044V37.3146L20.8913 49.3788L2.13944e-06 37.1743Z" transform="translate(94.6604 2)" stroke="#92A4BA" stroke-width="2" stroke-miterlimit="10"/>
<path d="M4.27887e-06 37.1744V12.0641L20.7511 1.71241e-05" transform="translate(115.552 14.2051)" fill="white"/>
<path d="M4.27887e-06 37.1744V12.0641L20.7511 1.71241e-05" transform="translate(115.552 14.2051)" stroke="#92A4BA" stroke-width="2" stroke-miterlimit="10"/>
<path d="M20.8913 12.3447L2.13943e-06 0" transform="translate(94.6604 13.9238)" stroke="#92A4BA" stroke-width="2" stroke-miterlimit="10"/>
<path d="M-2.13943e-06 22.8658L40.1001 -3.42482e-05" transform="translate(64.7955 32.3008)" stroke="#0074FF" stroke-width="2" stroke-miterlimit="10" stroke-linecap="round" stroke-linejoin="round"/>
<path d="M-1.06972e-06 37.1743V12.0641L20.8913 0L41.6424 12.2044V37.3146L20.8913 49.3788L-1.06972e-06 37.1743Z" transform="translate(58.0656 22.3418)" fill="white"/>
<path d="M-1.06972e-06 37.1743V12.0641L20.8913 0L41.6424 12.2044V37.3146L20.8913 49.3788L-1.06972e-06 37.1743Z" transform="translate(58.0656 22.3418)" stroke="#92A4BA" stroke-width="2" stroke-miterlimit="10"/>
<path d="M1.06972e-06 37.1744V12.0641L20.7511 1.71241e-05" transform="translate(78.9568 34.5449)" fill="white"/>
<path d="M1.06972e-06 37.1744V12.0641L20.7511 1.71241e-05" transform="translate(78.9568 34.5449)" stroke="#92A4BA" stroke-width="2" stroke-miterlimit="10"/>
<path d="M20.8913 12.2044L-1.06972e-06 -3.42482e-05" transform="translate(58.0655 34.4043)" stroke="#92A4BA" stroke-width="2" stroke-miterlimit="10"/>
<path d="M0 23.7075L41.5022 0" transform="translate(27.4998 53.2031)" stroke="#0074FF" stroke-width="2" stroke-miterlimit="10" stroke-linecap="round" stroke-linejoin="round"/>
<path d="M-1.06972e-06 37.1743V12.0641L20.8913 0L41.6424 12.2044V37.3146L20.8913 49.3788L-1.06972e-06 37.1743Z" transform="translate(23.0131 43.3828)" fill="white"/>
<path d="M-1.06972e-06 37.1743V12.0641L20.8913 0L41.6424 12.2044V37.3146L20.8913 49.3788L-1.06972e-06 37.1743Z" transform="translate(23.0131 43.3828)" stroke="#92A4BA" stroke-width="2" stroke-miterlimit="10"/>
<path d="M1.06972e-06 37.1744V12.0641L20.7511 1.71241e-05" transform="translate(43.9044 55.5879)" fill="white"/>
<path d="M1.06972e-06 37.1744V12.0641L20.7511 1.71241e-05" transform="translate(43.9044 55.5879)" stroke="#92A4BA" stroke-width="2" stroke-miterlimit="10"/>
<path d="M20.8913 12.2044L-1.06972e-06 -3.42482e-05" transform="translate(23.0131 55.4473)" stroke="#92A4BA" stroke-width="2" stroke-miterlimit="10"/>
<path d="M-1.33715e-07 18.7976L32.9494 0" transform="translate(1 74.2461)" stroke="#0074FF" stroke-width="2" stroke-miterlimit="10" stroke-linecap="round" stroke-linejoin="round"/>
<path d="M-8.55774e-06 12.7655L21.4521 -3.42482e-05" transform="translate(187.199 37.2109)" stroke="#0074FF" stroke-width="2" stroke-miterlimit="10" stroke-linecap="round" stroke-linejoin="round"/>
<path d="M2.13944e-06 37.1743V11.9238L20.7511 0L41.6424 12.2044V37.3146L20.8913 49.3788L2.13944e-06 37.1743Z" transform="translate(150.744 34.9668)" fill="white"/>
<path d="M2.13944e-06 37.1743V11.9238L20.7511 0L41.6424 12.2044V37.3146L20.8913 49.3788L2.13944e-06 37.1743Z" transform="translate(150.744 34.9668)" stroke="#92A4BA" stroke-width="2" stroke-miterlimit="10"/>
<path d="M4.27887e-06 37.1744V12.0641L20.7511 1.71241e-05" transform="translate(171.636 47.1699)" fill="white"/>
<path d="M4.27887e-06 37.1744V12.0641L20.7511 1.71241e-05" transform="translate(171.636 47.1699)" stroke="#92A4BA" stroke-width="2" stroke-miterlimit="10"/>
<path d="M20.8913 12.3447L2.13943e-06 0" transform="translate(150.744 46.8906)" stroke="#92A4BA" stroke-width="2" stroke-miterlimit="10"/>
<path d="M-2.13943e-06 22.8658L40.1001 -3.42482e-05" transform="translate(120.88 65.2676)" stroke="#0074FF" stroke-width="2" stroke-miterlimit="10" stroke-linecap="round" stroke-linejoin="round"/>
<path d="M-1.06972e-06 37.1743V12.0641L20.8913 0L41.6424 12.2044V37.3146L20.8913 49.3788L-1.06972e-06 37.1743Z" transform="translate(79.097 76.3496)" fill="white"/>
<path d="M-1.06972e-06 37.1743V12.0641L20.8913 0L41.6424 12.2044V37.3146L20.8913 49.3788L-1.06972e-06 37.1743Z" transform="translate(79.097 76.3496)" stroke="#92A4BA" stroke-width="2" stroke-miterlimit="10"/>
<path d="M-4.27887e-06 37.1744V12.0641L20.7511 1.71241e-05" transform="translate(99.9884 88.5527)" fill="white"/>
<path d="M-4.27887e-06 37.1744V12.0641L20.7511 1.71241e-05" transform="translate(99.9884 88.5527)" stroke="#92A4BA" stroke-width="2" stroke-miterlimit="10"/>
<path d="M20.8913 12.2044L-1.06972e-06 -3.42482e-05" transform="translate(79.097 88.4141)" stroke="#92A4BA" stroke-width="2" stroke-miterlimit="10"/>
<path d="M-2.13943e-06 18.7976L32.9493 0" transform="translate(57.0841 107.211)" stroke="#0074FF" stroke-width="2" stroke-miterlimit="10" stroke-linecap="round" stroke-linejoin="round"/>
</svg>
