<svg width="196" height="122" viewBox="0 0 196 122" fill="none" xmlns="http://www.w3.org/2000/svg">
<path d="M-4.27887e-06 56.3928V18.2365L31.6875 -4.28102e-06L63.5151 18.517V56.8136L31.8277 75.0501L-4.27887e-06 56.3928Z" transform="translate(76.2928 2)" fill="white"/>
<path d="M-4.27887e-06 56.3928V18.2365L31.6875 -4.28102e-06L63.5151 18.517V56.8136L31.8277 75.0501L-4.27887e-06 56.3928Z" transform="translate(76.2928 2)" stroke="#92A4BA" stroke-width="2" stroke-miterlimit="10"/>
<path d="M2.13943e-06 56.5331V18.3768L31.6875 -8.56205e-06" transform="translate(108.121 20.5156)" fill="white"/>
<path d="M2.13943e-06 56.5331V18.3768L31.6875 -8.56205e-06" transform="translate(108.121 20.5156)" stroke="#92A4BA" stroke-width="2" stroke-miterlimit="10"/>
<path d="M31.8277 18.6573L-4.27887e-06 -4.28102e-06" transform="translate(76.2929 20.2363)" stroke="#92A4BA" stroke-width="2" stroke-miterlimit="10"/>
<path d="M-4.27887e-06 56.3928V18.2365L31.6875 -4.28102e-06L63.5151 18.517V56.8136L31.8277 75.0501L-4.27887e-06 56.3928Z" transform="translate(130.975 34.9648)" fill="white"/>
<path d="M-4.27887e-06 56.3928V18.2365L31.6875 -4.28102e-06L63.5151 18.517V56.8136L31.8277 75.0501L-4.27887e-06 56.3928Z" transform="translate(130.975 34.9648)" stroke="#92A4BA" stroke-width="2" stroke-miterlimit="10"/>
<path d="M-8.55774e-06 56.5331V18.3768L31.6875 -8.56205e-06" transform="translate(162.802 53.4805)" fill="white"/>
<path d="M-8.55774e-06 56.5331V18.3768L31.6875 -8.56205e-06" transform="translate(162.802 53.4805)" stroke="#92A4BA" stroke-width="2" stroke-miterlimit="10"/>
<path d="M31.8277 18.6573L-4.27887e-06 -4.28102e-06" transform="translate(130.975 53.2012)" stroke="#92A4BA" stroke-width="2" stroke-miterlimit="10"/>
<path d="M-1.06972e-06 34.7896L60.9914 8.56205e-06" transform="translate(30.8647 48.1523)" stroke="#0074FF" stroke-width="2" stroke-miterlimit="10" stroke-linecap="round" stroke-linejoin="round"/>
<path d="M93.9407 4.96213C51.1767 30.914 34.2112 -15.3785 -1.06972e-06 5.66354" transform="translate(52.5973 75.4551)" stroke="#0074FF" stroke-width="2" stroke-miterlimit="10" stroke-linecap="round" stroke-linejoin="round"/>
<path d="M0 56.5331V18.2365L31.6875 -4.28102e-06L63.5151 18.517V56.8136L31.8277 75.0501L0 56.5331Z" transform="translate(1 45.4863)" fill="white"/>
<path d="M0 56.5331V18.2365L31.6875 -4.28102e-06L63.5151 18.517V56.8136L31.8277 75.0501L0 56.5331Z" transform="translate(1 45.4863)" stroke="#92A4BA" stroke-width="2" stroke-miterlimit="10"/>
<path d="M1.06972e-06 56.5331V18.3768L31.6875 -8.56205e-06" transform="translate(32.8277 64.002)" fill="white"/>
<path d="M1.06972e-06 56.5331V18.3768L31.6875 -8.56205e-06" transform="translate(32.8277 64.002)" stroke="#92A4BA" stroke-width="2" stroke-miterlimit="10"/>
<path d="M31.8277 18.6573L0 -4.28102e-06" transform="translate(1 63.7227)" stroke="#92A4BA" stroke-width="2" stroke-miterlimit="10"/>
</svg>
