<svg width="132" height="132" viewBox="0 0 132 132" fill="none" xmlns="http://www.w3.org/2000/svg">
<path d="M0 28.8837V0" transform="translate(64.7955 101.635)" stroke="#0074FF" stroke-width="2" stroke-linecap="round" stroke-linejoin="round" stroke-dasharray="3 5"/>
<path d="M3.05176e-06 2.10422V8.56205e-06" transform="translate(64.7955 95.1836)" stroke="black" stroke-width="2" stroke-linecap="round" stroke-linejoin="round" stroke-dasharray="4 4"/>
<path d="M4.27887e-06 32.6854L57.3459 8.56205e-06" transform="translate(73.2081 29.252)" stroke="#0074FF" stroke-width="2" stroke-miterlimit="10" stroke-linecap="round" stroke-linejoin="round"/>
<path d="M1.82273 1.12224L2.13943e-06 8.56205e-06" transform="translate(56.5231 60.8145)" stroke="black" stroke-width="2" stroke-linecap="round" stroke-linejoin="round" stroke-dasharray="4 4"/>
<path d="M42.063 23.988L0 0" transform="translate(6.74854 32.4785)" stroke="#0074FF" stroke-width="2" stroke-linecap="round" stroke-linejoin="round" stroke-dasharray="3 5"/>
<path d="M0 56.5331V18.2365L31.6875 1.71241e-05L63.5151 18.517V56.8136L31.8277 75.0501L0 56.5331Z" transform="translate(33.5287 30.793)" fill="white"/>
<path d="M0 56.5331V18.2365L31.6875 1.71241e-05L63.5151 18.517V56.8136L31.8277 75.0501L0 56.5331Z" transform="translate(33.5287 30.793)" stroke="#92A4BA" stroke-width="2" stroke-miterlimit="10"/>
<path d="M-4.27887e-06 56.5331V18.3768L31.6875 -8.56205e-06" transform="translate(65.3564 49.3105)" fill="white"/>
<path d="M-4.27887e-06 56.5331V18.3768L31.6875 -8.56205e-06" transform="translate(65.3564 49.3105)" stroke="#92A4BA" stroke-width="2" stroke-miterlimit="10"/>
<path d="M31.8277 18.6573L0 1.71241e-05" transform="translate(33.5287 49.0293)" stroke="#92A4BA" stroke-width="2" stroke-miterlimit="10"/>
<path d="M-1.06972e-06 27.6353L48.3725 1.71241e-05" transform="translate(1.70105 77.7871)" stroke="#0074FF" stroke-width="2" stroke-miterlimit="10" stroke-linecap="round" stroke-linejoin="round"/>
<path d="M39 23L0 0" transform="translate(82 77)" stroke="#0074FF" stroke-width="2" stroke-linecap="round" stroke-linejoin="round" stroke-dasharray="3 5"/>
<path d="M0 47.2866V0" transform="translate(64.7955 1.73438)" stroke="#0074FF" stroke-width="2" stroke-linecap="round" stroke-linejoin="round" stroke-dasharray="3 5"/>
</svg>
