<svg width="1260" height="356" viewBox="0 0 1260 356" fill="none" xmlns="http://www.w3.org/2000/svg">
<rect width="1260" height="356" fill="#101F34"/>
<mask id="mask0" mask-type="alpha" maskUnits="userSpaceOnUse" x="0" y="0" width="1260" height="356">
<rect width="1260" height="356" fill="#101F34"/>
</mask>
<g mask="url(#mask0)">
<path d="M-2.23092e-05 81.8865V26.4444L45.9634 1.39141e-06L92.1096 26.9915V82.4336L46.1461 108.878L-2.23092e-05 81.8865Z" transform="translate(1171.47 1.12305)" fill="#101F34"/>
<path d="M-2.23092e-05 81.8865V26.4444L45.9634 1.39141e-06L92.1096 26.9915V82.4336L46.1461 108.878L-2.23092e-05 81.8865Z" transform="translate(1171.47 1.12305)" stroke="white" stroke-miterlimit="10" stroke-linejoin="round"/>
<path d="M0.0913562 81.8865L0 26.5356L46.0548 0" transform="translate(1217.52 28.1152)" stroke="white" stroke-width="0.5" stroke-miterlimit="10" stroke-linejoin="round"/>
<path d="M46.0548 27.0827L-2.23092e-05 1.39141e-06" transform="translate(1171.47 27.5684)" stroke="white" stroke-width="0.5" stroke-miterlimit="10" stroke-linejoin="round"/>
<path d="M2.23092e-05 72.2206V23.344L40.5721 3.47853e-07L81.3269 23.8V72.6765L40.7548 96.0205L2.23092e-05 72.2206Z" transform="translate(1045.18 -61.6133)" fill="#101F34"/>
<path d="M2.23092e-05 72.2206V23.344L40.5721 3.47853e-07L81.3269 23.8V72.6765L40.7548 96.0205L2.23092e-05 72.2206Z" transform="translate(1045.18 -61.6133)" stroke="white" stroke-miterlimit="10" stroke-linejoin="round"/>
<path d="M0.0913786 72.2206L2.23092e-05 23.344L40.6635 6.95706e-07" transform="translate(1085.85 -37.8145)" stroke="white" stroke-width="0.5" stroke-miterlimit="10" stroke-linejoin="round"/>
<path d="M2.23092e-05 92.9202V30.0007L52.2685 0L104.628 30.639V93.5585L52.4513 123.559L2.23092e-05 92.9202Z" transform="translate(968.425 -46.6602)" fill="#101F34"/>
<path d="M2.23092e-05 92.9202V30.0007L52.2685 0L104.628 30.639V93.5585L52.4513 123.559L2.23092e-05 92.9202Z" transform="translate(968.425 -46.6602)" stroke="white" stroke-miterlimit="10" stroke-linejoin="round"/>
<path d="M0.0914232 92.9202L-4.46184e-05 30.0919L52.2686 -1.39141e-06" transform="translate(1020.79 -16.0215)" stroke="white" stroke-width="0.5" stroke-miterlimit="10" stroke-linejoin="round"/>
<path d="M52.3599 30.7302L2.23092e-05 1.39141e-06" transform="translate(968.425 -16.6582)" stroke="white" stroke-width="0.5" stroke-miterlimit="10" stroke-linejoin="round"/>
<path d="M2.23092e-05 70.6704V22.7969L39.6583 -1.39141e-06L79.408 23.2528V71.0351L39.7497 93.832L2.23092e-05 70.6704Z" transform="translate(915.426 12.7051)" fill="#101F34"/>
<path d="M2.23092e-05 70.6704V22.7969L39.6583 -1.39141e-06L79.408 23.2528V71.0351L39.7497 93.832L2.23092e-05 70.6704Z" transform="translate(915.426 12.7051)" stroke="white" stroke-miterlimit="10" stroke-linejoin="round"/>
<path d="M2.23092e-05 70.5792V22.8881L39.6583 -1.39141e-06" transform="translate(955.176 35.957)" stroke="white" stroke-width="0.5" stroke-miterlimit="10" stroke-linejoin="round"/>
<path d="M39.7497 23.344L2.23092e-05 -1.39141e-06" transform="translate(915.426 35.5)" stroke="white" stroke-width="0.5" stroke-miterlimit="10" stroke-linejoin="round"/>
<path d="M-2.23092e-05 51.0651C95.0337 -2.73563 182.757 82.9807 332.618 0" transform="translate(859.411 71.4277)" stroke="#0074FF" stroke-width="2" stroke-miterlimit="10" stroke-linejoin="round"/>
<path d="M79.4993 0C8.22405 41.9463 68.5339 84.8045 -2.23092e-05 125.839" transform="translate(842.963 -3.3457)" stroke="#0074FF" stroke-miterlimit="10" stroke-linejoin="round"/>
<path d="M2.23092e-05 68.9378V22.2498L38.7445 0L77.5804 22.7057V69.3938L38.8359 91.6435L2.23092e-05 68.9378Z" transform="translate(531.179 -57.6016)" fill="#101F34"/>
<path d="M2.23092e-05 68.9378V22.2498L38.7445 0L77.5804 22.7057V69.3938L38.8359 91.6435L2.23092e-05 68.9378Z" transform="translate(531.179 -57.6016)" stroke="white" stroke-miterlimit="10" stroke-linejoin="round"/>
<path d="M2.23092e-05 68.9378V22.341L38.7445 1.39141e-06" transform="translate(570.015 -34.8965)" stroke="white" stroke-width="0.5" stroke-miterlimit="10" stroke-linejoin="round"/>
<path d="M-2.23092e-05 73.862V23.8912L41.3945 8.69633e-08L83.0631 24.3471V74.3179L41.5772 98.209L-2.23092e-05 73.862Z" transform="translate(787.222 -63.6211)" fill="#101F34"/>
<path d="M-2.23092e-05 73.862V23.8912L41.3945 8.69633e-08L83.0631 24.3471V74.3179L41.5772 98.209L-2.23092e-05 73.862Z" transform="translate(787.222 -63.6211)" stroke="white" stroke-miterlimit="10" stroke-linejoin="round"/>
<path d="M0.0913562 73.862L0 23.8912L41.5772 -1.39141e-06" transform="translate(828.708 -39.2734)" stroke="white" stroke-width="0.5" stroke-miterlimit="10" stroke-linejoin="round"/>
<path d="M0 54.1654V17.508L30.3377 -6.95706e-07L60.8581 17.7816V54.439L30.5205 71.947L0 54.1654Z" transform="translate(733.217 -22.6758)" fill="#101F34"/>
<path d="M0 54.1654V17.508L30.3377 -6.95706e-07L60.8581 17.7816V54.439L30.5205 71.947L0 54.1654Z" transform="translate(733.217 -22.6758)" stroke="white" stroke-miterlimit="10" stroke-linejoin="round"/>
<path d="M0.0914009 54.1654L-1.11546e-05 17.5992L30.429 2.78282e-06" transform="translate(763.646 -4.89453)" stroke="white" stroke-width="0.5" stroke-miterlimit="10" stroke-linejoin="round"/>
<path d="M30.429 17.8728L0 0" transform="translate(733.217 -5.16797)" stroke="white" stroke-width="0.5" stroke-miterlimit="10" stroke-linejoin="round"/>
<path d="M1.11546e-05 83.3455V26.9915L46.7858 2.78283e-06L93.7544 27.4475V83.8926L46.9686 110.793L1.11546e-05 83.3455Z" transform="translate(651.159 4.22461)" fill="#101F34"/>
<path d="M1.11546e-05 83.3455V26.9915L46.7858 2.78283e-06L93.7544 27.4475V83.8926L46.9686 110.793L1.11546e-05 83.3455Z" transform="translate(651.159 4.22461)" stroke="white" stroke-miterlimit="10" stroke-linejoin="round"/>
<path d="M0.0913562 83.3455L0 26.9915L46.8772 1.39141e-06" transform="translate(698.036 31.6719)" stroke="white" stroke-width="0.5" stroke-miterlimit="10" stroke-linejoin="round"/>
<path d="M46.8772 27.4475L1.11546e-05 1.39141e-06" transform="translate(651.159 31.2148)" stroke="white" stroke-width="0.5" stroke-miterlimit="10" stroke-linejoin="round"/>
<path d="M-2.23092e-05 80.2451L141.18 0" transform="translate(407.087 -2.88867)" stroke="#00C3FF" stroke-width="2" stroke-miterlimit="10"/>
<path d="M281.446 8.85366C227.533 38.0337 93.2061 -32.1808 -2.23092e-05 19.7962" transform="translate(392.466 64.4004)" stroke="#0074FF" stroke-width="2" stroke-miterlimit="10" stroke-linejoin="round"/>
<path d="M-2.23092e-05 124.927C26.4998 110.337 96.8612 148.636 207.429 83.8926C317.997 19.1494 350.894 0 350.894 0" transform="translate(388.811 -32.5254)" stroke="#0074FF" stroke-miterlimit="10" stroke-linejoin="round"/>
<path d="M2.23092e-05 84.7133L149.13 5.56565e-06" transform="translate(1043.36 71.5195)" stroke="#00C3FF" stroke-miterlimit="10"/>
<path d="M-2.78865e-06 71.2175V23.0705L39.9324 1.73927e-07L80.139 23.4352V71.6735L40.1152 94.6527L-2.78865e-06 71.2175Z" transform="translate(9.22479 -57.3281)" fill="#101F34"/>
<path d="M-2.78865e-06 71.2175V23.0705L39.9324 1.73927e-07L80.139 23.4352V71.6735L40.1152 94.6527L-2.78865e-06 71.2175Z" transform="translate(9.22479 -57.3281)" stroke="white" stroke-miterlimit="10" stroke-linejoin="round"/>
<path d="M0.0913841 71.2175L0 23.1617L40.1152 0" transform="translate(49.2486 -33.8926)" stroke="white" stroke-width="0.5" stroke-miterlimit="10" stroke-linejoin="round"/>
<path d="M2.78865e-06 60.8221V19.6965L34.1756 1.39141e-06L68.5339 20.0613V61.1869L34.3583 80.8834L2.78865e-06 60.8221Z" transform="translate(-45.511 -8.90625)" fill="#101F34"/>
<path d="M2.78865e-06 60.8221V19.6965L34.1756 1.39141e-06L68.5339 20.0613V61.1869L34.3583 80.8834L2.78865e-06 60.8221Z" transform="translate(-45.511 -8.90625)" stroke="white" stroke-miterlimit="10" stroke-linejoin="round"/>
<path d="M0.0913799 60.8221L2.78865e-06 19.6965L34.267 1.39141e-06" transform="translate(-11.2441 11.1543)" stroke="white" stroke-width="0.5" stroke-miterlimit="10" stroke-linejoin="round"/>
<path d="M-5.5773e-06 81.9777V26.4444L46.0548 0L92.2923 26.9915V82.4336L46.2375 108.969L-5.5773e-06 81.9777Z" transform="translate(266.181 -69)" fill="#101F34"/>
<path d="M-5.5773e-06 81.9777V26.4444L46.0548 0L92.2923 26.9915V82.4336L46.2375 108.969L-5.5773e-06 81.9777Z" transform="translate(266.181 -69)" stroke="white" stroke-miterlimit="10" stroke-linejoin="round"/>
<path d="M0.0913785 81.9777L-5.5773e-06 26.5356L46.1462 3.47853e-07" transform="translate(312.327 -42.0098)" stroke="white" stroke-width="0.5" stroke-miterlimit="10" stroke-linejoin="round"/>
<path d="M-4.46184e-05 81.9777V26.4444L45.9634 5.56565e-06L92.2009 26.9915V82.4336L46.1461 108.969L-4.46184e-05 81.9777Z" transform="translate(973.725 115.746)" fill="#101F34"/>
<path d="M-4.46184e-05 81.9777V26.4444L45.9634 5.56565e-06L92.2009 26.9915V82.4336L46.1461 108.969L-4.46184e-05 81.9777Z" transform="translate(973.725 115.746)" stroke="white" stroke-miterlimit="10" stroke-linejoin="round"/>
<path d="M0.0913339 81.9777L-2.23092e-05 26.5356L46.1461 -2.78282e-06" transform="translate(1019.78 142.736)" stroke="white" stroke-width="0.5" stroke-miterlimit="10" stroke-linejoin="round"/>
<path d="M46.0548 27.0827L-4.46184e-05 5.56565e-06" transform="translate(973.725 142.191)" stroke="white" stroke-width="0.5" stroke-miterlimit="10" stroke-linejoin="round"/>
<path d="M4.46184e-05 59.1808V19.1494L33.2617 0L66.7064 19.5141V59.5455L33.4446 78.6949L4.46184e-05 59.1808Z" transform="translate(928.128 173.561)" fill="#101F34"/>
<path d="M4.46184e-05 59.1808V19.1494L33.2617 0L66.7064 19.5141V59.5455L33.4446 78.6949L4.46184e-05 59.1808Z" transform="translate(928.128 173.561)" stroke="white" stroke-miterlimit="10" stroke-linejoin="round"/>
<path d="M0.0914009 59.1807L4.46184e-05 19.1494L33.3532 -5.56565e-06" transform="translate(961.481 193.074)" stroke="white" stroke-width="0.5" stroke-miterlimit="10" stroke-linejoin="round"/>
<path d="M33.3532 19.5141L4.46184e-05 0" transform="translate(928.127 192.709)" stroke="white" stroke-width="0.5" stroke-miterlimit="10" stroke-linejoin="round"/>
<path d="M2.23092e-05 81.9777V26.4444L46.0548 5.56565e-06L92.2923 26.9915V82.4336L46.2375 108.969L2.23092e-05 81.9777Z" transform="translate(1235.71 119.393)" fill="#101F34"/>
<path d="M2.23092e-05 81.9777V26.4444L46.0548 5.56565e-06L92.2923 26.9915V82.4336L46.2375 108.969L2.23092e-05 81.9777Z" transform="translate(1235.71 119.393)" stroke="white" stroke-miterlimit="10" stroke-linejoin="round"/>
<path d="M46.1462 27.0827L2.23092e-05 5.56565e-06" transform="translate(1235.71 145.838)" stroke="white" stroke-width="0.5" stroke-miterlimit="10" stroke-linejoin="round"/>
<path d="M-4.46184e-05 85.9899V27.8122L48.2479 0L96.6785 28.2682V86.4458L48.4306 114.258L-4.46184e-05 85.9899Z" transform="translate(1167.9 157.602)" fill="#101F34"/>
<path d="M-4.46184e-05 85.9899V27.8122L48.2479 0L96.6785 28.2682V86.4458L48.4306 114.258L-4.46184e-05 85.9899Z" transform="translate(1167.9 157.602)" stroke="white" stroke-miterlimit="10" stroke-linejoin="round"/>
<path d="M0.0913339 85.9899L-2.23092e-05 27.9034L48.3393 0" transform="translate(1216.24 185.869)" stroke="white" stroke-width="0.5" stroke-miterlimit="10" stroke-linejoin="round"/>
<path d="M48.3392 28.3593L-4.46184e-05 0" transform="translate(1167.9 185.414)" stroke="white" stroke-width="0.5" stroke-miterlimit="10" stroke-linejoin="round"/>
<path d="M-2.23092e-05 65.3815V21.1555L36.7342 0L73.5597 21.5203V65.7463L36.9169 86.9018L-2.23092e-05 65.3815Z" transform="translate(1114.36 204.562)" fill="#101F34"/>
<path d="M-2.23092e-05 65.3815V21.1555L36.7342 0L73.5597 21.5203V65.7463L36.9169 86.9018L-2.23092e-05 65.3815Z" transform="translate(1114.36 204.562)" stroke="white" stroke-miterlimit="10" stroke-linejoin="round"/>
<path d="M0.0913785 65.3815L2.23092e-05 21.2467L36.7342 5.56565e-06" transform="translate(1151.18 226.082)" stroke="white" stroke-width="0.5" stroke-miterlimit="10" stroke-linejoin="round"/>
<path d="M36.8256 21.6115L-2.23092e-05 1.11313e-05" transform="translate(1114.36 225.717)" stroke="white" stroke-width="0.5" stroke-miterlimit="10" stroke-linejoin="round"/>
<path d="M-2.23092e-05 41.0344L72.189 0" transform="translate(602.637 72.7949)" stroke="#00C3FF" stroke-miterlimit="10"/>
<path d="M-2.23092e-05 41.0344L72.189 0" transform="translate(857.583 73.709)" stroke="#00C3FF" stroke-width="2" stroke-miterlimit="10"/>
<path d="M-2.23092e-05 41.0344L72.189 0" transform="translate(1055.87 261.555)" stroke="#00C3FF" stroke-width="2" stroke-miterlimit="10"/>
<path d="M5.5773e-06 41.0344L72.1891 0" transform="translate(217.02 -1.97852)" stroke="#00C3FF" stroke-width="2" stroke-miterlimit="10"/>
<path d="M1.11546e-05 70.5792V22.7969L39.6583 -5.56565e-06L79.4079 23.1617V70.944L39.7496 93.832L1.11546e-05 70.5792Z" transform="translate(786.399 78.1777)" fill="#101F34"/>
<path d="M1.11546e-05 70.5792V22.7969L39.6583 -5.56565e-06L79.4079 23.1617V70.944L39.7496 93.832L1.11546e-05 70.5792Z" transform="translate(786.399 78.1777)" stroke="white" stroke-miterlimit="10" stroke-linejoin="round"/>
<path d="M-4.46184e-05 70.6704V22.8881L39.6583 2.78282e-06" transform="translate(826.149 101.338)" stroke="white" stroke-width="0.5" stroke-miterlimit="10" stroke-linejoin="round"/>
<path d="M39.7496 23.2528L1.11546e-05 -5.56565e-06" transform="translate(786.399 100.975)" stroke="white" stroke-width="0.5" stroke-miterlimit="10" stroke-linejoin="round"/>
<path d="M2.23092e-05 90.1845V29.0888L50.6237 5.56565e-06L101.522 29.636V90.7317L50.8978 119.912L2.23092e-05 90.1845Z" transform="translate(710.281 110.275)" fill="#101F34"/>
<path d="M2.23092e-05 90.1845V29.0888L50.6237 5.56565e-06L101.522 29.636V90.7317L50.8978 119.912L2.23092e-05 90.1845Z" transform="translate(710.281 110.275)" stroke="white" stroke-miterlimit="10" stroke-linejoin="round"/>
<path d="M0.0913562 90.2757L0 29.2712L50.7151 5.56565e-06" transform="translate(761.087 139.91)" stroke="white" stroke-width="0.5" stroke-miterlimit="10" stroke-linejoin="round"/>
<path d="M50.8065 29.8184L2.23092e-05 0" transform="translate(710.281 139.363)" stroke="white" stroke-width="0.5" stroke-miterlimit="10" stroke-linejoin="round"/>
<path d="M-2.23092e-05 41.0344L72.189 0" transform="translate(665.688 183.135)" stroke="#00C3FF" stroke-width="0.5" stroke-miterlimit="10"/>
<path d="M-1.11546e-05 55.9892V18.0551L31.4342 0L63.0512 18.4199V56.3539L31.617 74.4091L-1.11546e-05 55.9892Z" transform="translate(537.484 88.7539)" fill="#101F34"/>
<path d="M-1.11546e-05 55.9892V18.0551L31.4342 0L63.0512 18.4199V56.3539L31.617 74.4091L-1.11546e-05 55.9892Z" transform="translate(537.484 88.7539)" stroke="white" stroke-miterlimit="10" stroke-linejoin="round"/>
<path d="M0.0914009 55.9892L-1.11546e-05 18.1463L31.5256 -2.78282e-06" transform="translate(569.01 107.172)" stroke="white" stroke-width="0.5" stroke-miterlimit="10" stroke-linejoin="round"/>
<path d="M31.5256 18.5111L-1.11546e-05 2.78283e-06" transform="translate(537.484 106.811)" stroke="white" stroke-width="0.5" stroke-miterlimit="10" stroke-linejoin="round"/>
<path d="M-2.23092e-05 81.9777V26.4444L46.0548 5.56565e-06L92.2923 26.9915V82.4336L46.2376 108.969L-2.23092e-05 81.9777Z" transform="translate(457.802 115.746)" fill="#101F34"/>
<path d="M-2.23092e-05 81.9777V26.4444L46.0548 5.56565e-06L92.2923 26.9915V82.4336L46.2376 108.969L-2.23092e-05 81.9777Z" transform="translate(457.802 115.746)" stroke="white" stroke-miterlimit="10" stroke-linejoin="round"/>
<path d="M0.0913897 81.9777L-2.23092e-05 26.5356L46.1461 -2.78282e-06" transform="translate(503.948 142.736)" stroke="white" stroke-width="0.5" stroke-miterlimit="10" stroke-linejoin="round"/>
<path d="M46.1461 27.0827L-2.23092e-05 5.56565e-06" transform="translate(457.802 142.191)" stroke="white" stroke-width="0.5" stroke-miterlimit="10" stroke-linejoin="round"/>
<path d="M-2.23092e-05 41.0344L72.189 0" transform="translate(404.346 184.957)" stroke="#00C3FF" stroke-width="2" stroke-miterlimit="10"/>
<path d="M5.5773e-06 78.6949V25.4414L44.1359 -1.11313e-05L88.5458 25.8973V79.1508L44.3186 104.592L5.5773e-06 78.6949Z" transform="translate(328.958 192.07)" fill="#101F34"/>
<path d="M5.5773e-06 78.6949V25.4414L44.1359 -1.11313e-05L88.5458 25.8973V79.1508L44.3186 104.592L5.5773e-06 78.6949Z" transform="translate(328.958 192.07)" stroke="white" stroke-miterlimit="10" stroke-linejoin="round"/>
<path d="M-2.23092e-05 78.6949V25.5325L44.2272 1.11313e-05" transform="translate(373.277 217.969)" stroke="white" stroke-width="0.5" stroke-miterlimit="10" stroke-linejoin="round"/>
<path d="M44.3186 25.9885L5.5773e-06 1.11313e-05" transform="translate(328.958 217.514)" stroke="white" stroke-width="0.5" stroke-miterlimit="10" stroke-linejoin="round"/>
<path d="M-5.5773e-06 84.7133L149.13 5.56565e-06" transform="translate(204.501 257.541)" stroke="#00C3FF" stroke-width="0.5" stroke-miterlimit="10"/>
<path d="M-5.5773e-06 92.9202V30.0007L52.1772 1.39141e-06L104.537 30.5478V93.4673L52.3599 123.468L-5.5773e-06 92.9202Z" transform="translate(321.922 34.8633)" fill="#101F34"/>
<path d="M-5.5773e-06 92.9202V30.0007L52.1772 1.39141e-06L104.537 30.5478V93.4673L52.3599 123.468L-5.5773e-06 92.9202Z" transform="translate(321.922 34.8633)" stroke="white" stroke-miterlimit="10" stroke-linejoin="round"/>
<path d="M0.0913897 92.9202L-2.23092e-05 30.0919L52.2685 -5.56565e-06" transform="translate(374.191 65.4121)" stroke="white" stroke-width="0.5" stroke-miterlimit="10" stroke-linejoin="round"/>
<path d="M52.2685 30.639L-5.5773e-06 2.78283e-06" transform="translate(321.922 64.8633)" stroke="white" stroke-width="0.5" stroke-miterlimit="10" stroke-linejoin="round"/>
<path d="M-5.5773e-06 84.7133L149.13 5.56565e-06" transform="translate(200.846 110.729)" stroke="#00C3FF" stroke-width="0.5" stroke-miterlimit="10"/>
<path d="M-5.5773e-06 81.9776V26.5356L45.9634 2.78282e-06L92.2009 26.9915V82.5248L46.1462 108.969L-5.5773e-06 81.9776Z" transform="translate(135.51 -3.98242)" fill="#101F34"/>
<path d="M-5.5773e-06 81.9776V26.5356L45.9634 2.78282e-06L92.2009 26.9915V82.5248L46.1462 108.969L-5.5773e-06 81.9776Z" transform="translate(135.51 -3.98242)" stroke="white" stroke-miterlimit="10" stroke-linejoin="round"/>
<path d="M-5.5773e-06 81.9777V26.6268L46.0548 1.39141e-06" transform="translate(181.656 23.0098)" stroke="white" stroke-width="0.5" stroke-miterlimit="10" stroke-linejoin="round"/>
<path d="M46.1462 27.0827L-5.5773e-06 1.39141e-06" transform="translate(135.51 22.5527)" stroke="white" stroke-width="0.5" stroke-miterlimit="10" stroke-linejoin="round"/>
<path d="M-2.78865e-06 72.2206V23.2528L40.4807 0L81.2355 23.7088V72.5853L40.6635 95.9294L-2.78865e-06 72.2206Z" transform="translate(75.931 48.6328)" fill="#101F34"/>
<path d="M-2.78865e-06 72.2206V23.2528L40.4807 0L81.2355 23.7088V72.5853L40.6635 95.9294L-2.78865e-06 72.2206Z" transform="translate(75.931 48.6328)" stroke="white" stroke-miterlimit="10" stroke-linejoin="round"/>
<path d="M0.0913897 72.2206L5.5773e-06 23.4352L40.6635 0" transform="translate(116.503 72.3398)" stroke="white" stroke-width="0.5" stroke-miterlimit="10" stroke-linejoin="round"/>
<path d="M40.5721 23.8911L-2.78865e-06 0" transform="translate(75.9311 71.8848)" stroke="white" stroke-width="0.5" stroke-miterlimit="10" stroke-linejoin="round"/>
<path d="M5.5773e-06 41.0344L72.1891 0" transform="translate(21.4695 109.271)" stroke="#00C3FF" stroke-width="0.5" stroke-miterlimit="10"/>
<path d="M14.076 0C-35.2684 28.2682 66.1618 114.896 1.28299 151.371" transform="translate(660.75 73.2539)" stroke="#0074FF" stroke-miterlimit="10" stroke-linejoin="round"/>
<path d="M281.446 8.90977C224.791 40.8254 95.9475 -34.8603 5.5773e-06 21.676" transform="translate(195.089 176.502)" stroke="#0074FF" stroke-miterlimit="10" stroke-linejoin="round"/>
<path d="M5.5773e-06 201.525C104.172 141.341 6.97163e-06 57.4482 97.7751 0" transform="translate(191.434 -1.52148)" stroke="#0074FF" stroke-miterlimit="10" stroke-linejoin="round"/>
<path d="M81.3269 0C-12.793 53.8007 95.9475 143.165 5.5773e-06 195.141" transform="translate(268.192 110.639)" stroke="#0074FF" stroke-width="2" stroke-miterlimit="10" stroke-linejoin="round"/>
<path d="M5.5773e-06 206.084C80.4131 159.578 26.4998 41.0344 96.8613 0" transform="translate(-2.28894 109.729)" stroke="#0074FF" stroke-width="2" stroke-miterlimit="10" stroke-linejoin="round"/>
<path d="M37.8715 0C-52.5933 51.0651 53.4058 118.544 8.63034 145.9" transform="translate(891.901 74.166)" stroke="#0074FF" stroke-width="0.5" stroke-miterlimit="10" stroke-linejoin="round"/>
<path d="M148.947 0C-25.586 88.452 121.533 179.64 -2.23092e-05 238.912" transform="translate(1044 71.4277)" stroke="#0074FF" stroke-miterlimit="10" stroke-linejoin="round"/>
<path d="M-1.42097e-06 147C72.6375 108.569 60.5312 51.8824 149 0" transform="translate(-10 -1)" stroke="#0074FF" stroke-width="0.5" stroke-miterlimit="10" stroke-linejoin="round"/>
<path d="M103.258 0C32.8963 40.1225 88.6372 121.28 -2.23092e-05 170.521" transform="translate(634.62 183.59)" stroke="#0074FF" stroke-width="2" stroke-miterlimit="10" stroke-linejoin="round"/>
<path d="M-1.39433e-06 80.1539V25.8973L44.9583 -5.56565e-06L90.1906 26.3532V80.701L45.141 106.598L-1.39433e-06 80.1539Z" transform="translate(-57.573 116.932)" fill="#101F34"/>
<path d="M-1.39433e-06 80.1539V25.8973L44.9583 -5.56565e-06L90.1906 26.3532V80.701L45.141 106.598L-1.39433e-06 80.1539Z" transform="translate(-57.573 116.932)" stroke="white" stroke-miterlimit="10" stroke-linejoin="round"/>
<path d="M0 80.2451V25.9885L45.0496 2.78282e-06" transform="translate(-12.4319 143.285)" stroke="white" stroke-width="0.5" stroke-miterlimit="10" stroke-linejoin="round"/>
<path d="M0 81.9776V26.5356L46.0548 0L92.201 26.9915V82.4336L46.2375 108.969L0 81.9776Z" transform="translate(977.198 267.938)" fill="#101F34"/>
<path d="M0 81.9776V26.5356L46.0548 0L92.201 26.9915V82.4336L46.2375 108.969L0 81.9776Z" transform="translate(977.198 267.938)" stroke="white" stroke-miterlimit="10" stroke-linejoin="round"/>
<path d="M0.0913562 81.9777L0 26.5356L46.0548 5.56565e-06" transform="translate(1023.34 294.93)" stroke="white" stroke-width="0.5" stroke-miterlimit="10" stroke-linejoin="round"/>
<path d="M46.1462 26.9915L0 5.56565e-06" transform="translate(977.198 294.473)" stroke="white" stroke-width="0.5" stroke-miterlimit="10" stroke-linejoin="round"/>
<path d="M4.46184e-05 59.6367V19.2406L33.4446 -1.11313e-05L67.0718 19.6053V60.0014L33.5359 79.242L4.46184e-05 59.6367Z" transform="translate(925.843 313.807)" fill="#101F34"/>
<path d="M4.46184e-05 59.6367V19.2406L33.4446 -1.11313e-05L67.0718 19.6053V60.0014L33.5359 79.242L4.46184e-05 59.6367Z" transform="translate(925.843 313.807)" stroke="white" stroke-miterlimit="10" stroke-linejoin="round"/>
<path d="M0 59.6367V19.3318L33.5359 -1.11313e-05" transform="translate(959.379 333.412)" stroke="white" stroke-width="0.5" stroke-miterlimit="10" stroke-linejoin="round"/>
<path d="M33.5359 19.6965L4.46184e-05 -5.56565e-06" transform="translate(925.843 333.047)" stroke="white" stroke-width="0.5" stroke-miterlimit="10" stroke-linejoin="round"/>
<path d="M2.23092e-05 93.0113V30.0919L52.1772 -5.56565e-06L104.537 30.639V93.5585L52.3599 123.559L2.23092e-05 93.0113Z" transform="translate(836.84 182.588)" fill="#101F34"/>
<path d="M2.23092e-05 93.0113V30.0919L52.1772 -5.56565e-06L104.537 30.639V93.5585L52.3599 123.559L2.23092e-05 93.0113Z" transform="translate(836.84 182.588)" stroke="white" stroke-miterlimit="10" stroke-linejoin="round"/>
<path d="M0.0913339 92.9202L-2.23092e-05 30.0919L52.2686 0" transform="translate(889.109 213.227)" stroke="white" stroke-width="0.5" stroke-miterlimit="10" stroke-linejoin="round"/>
<path d="M52.2685 30.639L2.23092e-05 -5.56565e-06" transform="translate(836.84 212.678)" stroke="white" stroke-width="0.5" stroke-miterlimit="10" stroke-linejoin="round"/>
<path d="M-2.23092e-05 41.0344L72.189 0" transform="translate(794.532 260.643)" stroke="#00C3FF" stroke-miterlimit="10"/>
<path d="M1.11546e-05 65.7463V21.2467L36.9169 -1.11313e-05L73.9252 21.7027V66.2022L37.0083 87.4489L1.11546e-05 65.7463Z" transform="translate(724.262 278.699)" fill="#101F34"/>
<path d="M1.11546e-05 65.7463V21.2467L36.9169 -1.11313e-05L73.9252 21.7027V66.2022L37.0083 87.4489L1.11546e-05 65.7463Z" transform="translate(724.262 278.699)" stroke="white" stroke-miterlimit="10" stroke-linejoin="round"/>
<path d="M1.11546e-05 65.7463V21.2467L36.9169 5.56565e-06" transform="translate(761.27 300.402)" stroke="white" stroke-width="0.5" stroke-miterlimit="10" stroke-linejoin="round"/>
<path d="M37.0083 21.7026L1.11546e-05 5.56565e-06" transform="translate(724.262 299.945)" stroke="white" stroke-width="0.5" stroke-miterlimit="10" stroke-linejoin="round"/>
<path d="M71.2752 0C-3.65516 42.8582 79.4993 103.042 -2.23092e-05 145.9" transform="translate(795.446 261.1)" stroke="#0074FF" stroke-miterlimit="10" stroke-linejoin="round"/>
<path d="M-2.23092e-05 23.344L41.1203 0" transform="translate(700.412 332.682)" stroke="#00C3FF" stroke-width="2" stroke-miterlimit="10"/>
<path d="M2.23092e-05 68.9378V22.2498L38.7445 -5.56565e-06L77.6718 22.7057V69.3938L38.9273 91.6435L2.23092e-05 68.9378Z" transform="translate(591.489 195.809)" fill="#101F34"/>
<path d="M2.23092e-05 68.9378V22.2498L38.7445 -5.56565e-06L77.6718 22.7057V69.3938L38.9273 91.6435L2.23092e-05 68.9378Z" transform="translate(591.489 195.809)" stroke="white" stroke-miterlimit="10" stroke-linejoin="round"/>
<path d="M0.0913786 68.9378L2.23092e-05 22.341L38.8359 -1.11313e-05" transform="translate(630.325 218.516)" stroke="white" stroke-width="0.5" stroke-miterlimit="10" stroke-linejoin="round"/>
<path d="M38.8359 22.7969L2.23092e-05 -1.11313e-05" transform="translate(591.489 218.059)" stroke="white" stroke-width="0.5" stroke-miterlimit="10" stroke-linejoin="round"/>
<path d="M1.11546e-05 91.6435V29.636L51.4461 0L103.075 30.1831V92.1907L51.6289 121.735L1.11546e-05 91.6435Z" transform="translate(515.462 228.27)" fill="#101F34"/>
<path d="M1.11546e-05 91.6435V29.636L51.4461 0L103.075 30.1831V92.1907L51.6289 121.735L1.11546e-05 91.6435Z" transform="translate(515.462 228.27)" stroke="white" stroke-miterlimit="10" stroke-linejoin="round"/>
<path d="M0.0913897 91.5524L-2.23092e-05 29.636L51.5375 5.56565e-06" transform="translate(566.999 258.453)" stroke="white" stroke-width="0.5" stroke-miterlimit="10" stroke-linejoin="round"/>
<path d="M51.5375 30.1831L1.11546e-05 0" transform="translate(515.462 257.908)" stroke="white" stroke-width="0.5" stroke-miterlimit="10" stroke-linejoin="round"/>
<path d="M0 67.2964V21.7026L37.8307 1.11313e-05L75.8442 22.1586V67.7524L38.0135 89.455L0 67.2964Z" transform="translate(464.564 277.695)" fill="#101F34"/>
<path d="M0 67.2964V21.7026L37.8307 1.11313e-05L75.8442 22.1586V67.7524L38.0135 89.455L0 67.2964Z" transform="translate(464.564 277.695)" stroke="white" stroke-miterlimit="10" stroke-linejoin="round"/>
<path d="M0.0913562 67.2964L0 21.7938L37.9221 0" transform="translate(502.486 299.852)" stroke="white" stroke-width="0.5" stroke-miterlimit="10" stroke-linejoin="round"/>
<path d="M37.9221 22.2498L0 0" transform="translate(464.564 299.398)" stroke="white" stroke-width="0.5" stroke-miterlimit="10" stroke-linejoin="round"/>
<path d="M214.74 37.3004C148.033 74.6873 80.4131 -32.0022 5.5773e-06 9.94411" transform="translate(266.364 296.748)" stroke="#0074FF" stroke-miterlimit="10" stroke-linejoin="round"/>
<path d="M5.5773e-06 86.0811V27.8122L48.3393 0L96.8613 28.3593V86.6282L48.522 114.44L5.5773e-06 86.0811Z" transform="translate(196.916 263.379)" fill="#101F34"/>
<path d="M5.5773e-06 86.0811V27.8122L48.3393 0L96.8613 28.3593V86.6282L48.522 114.44L5.5773e-06 86.0811Z" transform="translate(196.916 263.379)" stroke="white" stroke-miterlimit="10" stroke-linejoin="round"/>
<path d="M0.0913897 86.0811L5.5773e-06 27.9034L48.4306 5.56565e-06" transform="translate(245.347 291.736)" stroke="white" stroke-width="0.5" stroke-miterlimit="10" stroke-linejoin="round"/>
<path d="M48.4306 28.4505L5.5773e-06 0" transform="translate(196.916 291.189)" stroke="white" stroke-width="0.5" stroke-miterlimit="10" stroke-linejoin="round"/>
<path d="M1.11546e-05 65.7463V21.2467L36.8256 0L73.9253 21.6115V66.111L37.0083 87.3577L1.11546e-05 65.7463Z" transform="translate(142.637 310.338)" fill="#101F34"/>
<path d="M1.11546e-05 65.7463V21.2467L36.8256 0L73.9253 21.6115V66.111L37.0083 87.3577L1.11546e-05 65.7463Z" transform="translate(142.637 310.338)" stroke="white" stroke-miterlimit="10" stroke-linejoin="round"/>
<path d="M0.0913897 65.7463L5.5773e-06 21.3379L37.0083 1.11313e-05" transform="translate(179.554 331.951)" stroke="white" stroke-width="0.5" stroke-miterlimit="10" stroke-linejoin="round"/>
<path d="M36.9169 21.7027L1.11546e-05 -1.11313e-05" transform="translate(142.638 331.588)" stroke="white" stroke-width="0.5" stroke-miterlimit="10" stroke-linejoin="round"/>
<path d="M5.5773e-06 65.7463V21.2467L36.9169 -2.78282e-06L74.0166 21.7026V66.2022L37.0997 87.4489L5.5773e-06 65.7463Z" transform="translate(142.546 163.711)" fill="#101F34"/>
<path d="M5.5773e-06 65.7463V21.2467L36.9169 -2.78282e-06L74.0166 21.7026V66.2022L37.0997 87.4489L5.5773e-06 65.7463Z" transform="translate(142.546 163.711)" stroke="white" stroke-miterlimit="10" stroke-linejoin="round"/>
<path d="M0.0913897 65.7463L5.5773e-06 21.2467L37.0083 0" transform="translate(179.554 185.414)" stroke="white" stroke-width="0.5" stroke-miterlimit="10" stroke-linejoin="round"/>
<path d="M37.0083 21.7026L5.5773e-06 0" transform="translate(142.546 184.957)" stroke="white" stroke-width="0.5" stroke-miterlimit="10" stroke-linejoin="round"/>
<path d="M2.78865e-06 76.5064V24.7118L42.9479 -5.56565e-06L86.0786 25.1678V76.9623L43.1307 101.674L2.78865e-06 76.5064Z" transform="translate(71.4536 202.648)" fill="#101F34"/>
<path d="M2.78865e-06 76.5064V24.7118L42.9479 -5.56565e-06L86.0786 25.1678V76.9623L43.1307 101.674L2.78865e-06 76.5064Z" transform="translate(71.4536 202.648)" stroke="white" stroke-miterlimit="10" stroke-linejoin="round"/>
<path d="M0.0913786 76.5064L-5.5773e-06 24.803L43.0393 0" transform="translate(114.493 227.814)" stroke="white" stroke-width="0.5" stroke-miterlimit="10" stroke-linejoin="round"/>
<path d="M43.0393 25.259L2.78865e-06 0" transform="translate(71.4536 227.359)" stroke="white" stroke-width="0.5" stroke-miterlimit="10" stroke-linejoin="round"/>
<path d="M5.5773e-06 41.0344L72.1891 0" transform="translate(19.6418 260.643)" stroke="#00C3FF" stroke-width="2" stroke-miterlimit="10"/>
<path d="M2.78865e-06 64.3784V20.7908L36.1859 -1.11313e-05L72.4632 21.2467V64.7432L36.2773 85.6252L2.78865e-06 64.3784Z" transform="translate(-46.8817 279.611)" fill="#101F34"/>
<path d="M2.78865e-06 64.3784V20.7908L36.1859 -1.11313e-05L72.4632 21.2467V64.7432L36.2773 85.6252L2.78865e-06 64.3784Z" transform="translate(-46.8817 279.611)" stroke="white" stroke-miterlimit="10" stroke-linejoin="round"/>
<path d="M0 64.3785V20.7908L36.1859 5.56565e-06" transform="translate(-10.6044 300.859)" stroke="white" stroke-width="0.5" stroke-miterlimit="10" stroke-linejoin="round"/>
<path d="M-2.23092e-05 77.5095L140.723 0" transform="translate(1118.93 280.248)" stroke="#0074FF" stroke-miterlimit="10" stroke-linejoin="round"/>
</g>
</svg>
